# xmcd
#
# Track frame offsets:
#	150
#	13529
#	26052
#	36498
#	48476
#	64747
#	74117
#	85995
#	94411
#	102563
#
# Disc length: 1539 seconds
#
# Revision: 0
# Processed by: cddbd v1.5.2PL0 Copyright (c) Steve Scherf et al.
# Submitted via: audiograbber 1.82.01
#
DISCID=9206010a
DTITLE=George Jones and Tammy Wynette - Golden Ring
DYEAR=1976
DGENRE=Country
TTITLE0=Golden Ring
TTITLE1=Even the Bad Times Are Good 
TTITLE2=Near You
TTITLE3=Cryin' Time
TTITLE4=I've Seen Better Days
TTITLE5=Did You Ever
TTITLE6=Tattletale Eyes
TTITLE7=I'll Be There (If You Ever Want Me)
TTITLE8=If You Don't, Somebody Else Will
TTITLE9=Keep the Change
EXTD=
EXTT0=
EXTT1=
EXTT2=
EXTT3=
EXTT4=
EXTT5=
EXTT6=
EXTT7=
EXTT8=
EXTT9=
PLAYORDER=
